<svg width="134" height="33" viewBox="0 0 134 33" fill="none" xmlns="http://www.w3.org/2000/svg">
<path d="M43.4305 13.8152V15.6926H38V13.8152H43.4305ZM39.2327 11.6574H41.7341V20.0507C41.7256 20.2338 41.7621 20.4162 41.8405 20.5819C41.904 20.7036 42.0094 20.7983 42.1372 20.8486C42.2784 20.9022 42.4286 20.9282 42.5797 20.9251C42.6981 20.925 42.8163 20.9144 42.9328 20.8932L43.2029 20.8433L43.5954 22.7026C43.4699 22.7408 43.2944 22.7876 43.0636 22.8396C42.7914 22.898 42.5144 22.9307 42.2361 22.9374C41.6978 22.9701 41.1587 22.8879 40.6546 22.6962C40.2218 22.5287 39.853 22.229 39.6007 21.8399C39.3497 21.4531 39.2273 20.9644 39.2305 20.3737L39.2327 11.6574Z" fill="white"/>
<path d="M49.0365 22.999C48.1254 22.999 47.3377 22.8045 46.6733 22.4157C46.0151 22.0317 45.4821 21.4657 45.1386 20.7859C44.7784 20.0875 44.5983 19.2772 44.5983 18.355C44.5983 17.4328 44.7784 16.6183 45.1386 15.9114C45.4819 15.2315 46.0149 14.6655 46.6733 14.2816C47.337 13.8928 48.1247 13.6984 49.0365 13.6984C49.9483 13.6984 50.7361 13.8928 51.3997 14.2816C52.06 14.667 52.5942 15.2353 52.9376 15.9178C53.2971 16.6148 53.4772 17.4293 53.4779 18.3614C53.4948 19.2011 53.3095 20.0326 52.9376 20.7859C52.5939 21.4655 52.0609 22.0314 51.4029 22.4157C50.7371 22.8045 49.9483 22.999 49.0365 22.999ZM49.0482 21.0643C49.4263 21.0767 49.7959 20.9504 50.0873 20.7094C50.381 20.4482 50.5989 20.1127 50.718 19.7383C51.0045 18.826 51.0045 17.8479 50.718 16.9356C50.5989 16.5606 50.381 16.2245 50.0873 15.9624C49.797 15.7191 49.4269 15.5916 49.0482 15.6044C48.665 15.5919 48.2904 15.7192 47.9942 15.9624C47.6962 16.2222 47.4755 16.5589 47.3561 16.9356C47.0696 17.8479 47.0696 18.826 47.3561 19.7383C47.4755 20.1144 47.6963 20.4504 47.9942 20.7094C48.2916 20.9502 48.6657 21.0761 49.0482 21.0643Z" fill="white"/>
<path d="M57.6077 17.6177V22.8237H55.1062V13.8152H57.4897V15.4089H57.596C57.7865 14.896 58.1384 14.4587 58.5989 14.1626C59.069 13.8552 59.6388 13.7019 60.3081 13.7026C60.8806 13.6889 61.4463 13.8302 61.9449 14.1116C62.4129 14.3878 62.7906 14.7938 63.0318 15.2803C63.3022 15.8433 63.4349 16.4623 63.419 17.0865V22.8237H60.9143V17.5338C60.9143 16.982 60.7725 16.551 60.4889 16.2408C60.2053 15.9305 59.8153 15.7751 59.319 15.7744C59.0088 15.7665 58.7019 15.8397 58.4288 15.9869C58.1715 16.1335 57.9632 16.3526 57.83 16.6169C57.6776 16.9282 57.6014 17.2712 57.6077 17.6177Z" fill="white"/>
<path d="M71.1681 18.9883V13.8152H73.6685V22.8237H71.267V21.1875H71.1734C70.9773 21.7076 70.6232 22.1534 70.1609 22.4624C69.6894 22.7833 69.115 22.9437 68.4379 22.9437C67.8784 22.9562 67.3263 22.8139 66.8426 22.5326C66.3803 22.2542 66.0084 21.8484 65.7716 21.3639C65.5022 20.8005 65.3685 20.182 65.3812 19.5577V13.8205H67.8817V19.1051C67.8859 19.6363 68.0277 20.0567 68.3071 20.3662C68.4511 20.5207 68.6269 20.6421 68.8225 20.7221C69.0181 20.8021 69.2287 20.8387 69.4398 20.8295C69.7349 20.8301 70.0256 20.7571 70.2853 20.617C70.5517 20.4745 70.7728 20.2603 70.9234 19.9986C71.0961 19.6906 71.1807 19.3411 71.1681 18.9883Z" fill="white"/>
<path d="M78.1652 17.6177V22.8237H75.6648V13.8152H78.0482V15.4089H78.1546C78.3455 14.8959 78.6977 14.4586 79.1585 14.1626C79.6279 13.8552 80.1973 13.7019 80.8666 13.7026C81.4395 13.6889 82.0055 13.8302 82.5045 14.1116C82.9722 14.3878 83.3495 14.7939 83.5904 15.2803C83.8608 15.8433 83.9935 16.4623 83.9775 17.0865V22.8237H81.476V17.5338C81.4803 16.982 81.3385 16.551 81.0506 16.2408C80.7627 15.9305 80.3692 15.7751 79.8701 15.7744C79.5602 15.7666 79.2537 15.8399 78.9809 15.9869C78.723 16.1327 78.5145 16.352 78.3822 16.6169C78.2321 16.9288 78.1578 17.2717 78.1652 17.6177Z" fill="white"/>
<path d="M85.943 22.8237V13.8152H88.4445V22.8237H85.943Z" fill="white"/>
<path d="M98.846 13.8152L95.6926 22.8237H92.8763L89.7239 13.8152H92.3658L94.2376 20.26H94.3312L96.1988 13.8152H98.846Z" fill="white"/>
<path d="M103.936 22.999C103.009 22.999 102.211 22.8102 101.544 22.4327C100.883 22.0616 100.346 21.5025 100.003 20.8263C99.6423 20.1322 99.4622 19.3102 99.4629 18.3604C99.4629 17.4339 99.643 16.6194 100.003 15.9167C100.344 15.2372 100.872 14.6694 101.526 14.2806C102.181 13.8896 102.951 13.6941 103.836 13.6941C104.404 13.6892 104.967 13.7856 105.501 13.9788C106.007 14.1618 106.467 14.4517 106.85 14.8288C107.252 15.2331 107.56 15.7205 107.752 16.2567C107.978 16.9016 108.086 17.5817 108.071 18.2647V18.9511H100.461V17.4105H105.721C105.727 17.0768 105.646 16.7472 105.486 16.4543C105.334 16.1811 105.109 15.955 104.837 15.8009C104.545 15.6384 104.214 15.5563 103.88 15.5629C103.526 15.556 103.178 15.6464 102.873 15.8243C102.587 15.9927 102.351 16.2335 102.189 16.5223C102.023 16.8188 101.936 17.1528 101.937 17.4923V18.9649C101.925 19.3637 102.008 19.7596 102.18 20.1198C102.337 20.4338 102.583 20.6947 102.888 20.8698C103.22 21.0529 103.594 21.1442 103.973 21.1344C104.233 21.1372 104.491 21.0977 104.737 21.0175C104.958 20.9451 105.161 20.8247 105.329 20.6648C105.497 20.5044 105.626 20.3078 105.706 20.09L108.019 20.243C107.91 20.7812 107.662 21.2814 107.299 21.6943C106.916 22.1191 106.438 22.4469 105.903 22.6505C105.276 22.891 104.608 23.0093 103.936 22.999Z" fill="white"/>
<path d="M109.707 22.8237V13.8152H112.131V15.3866H112.226C112.389 14.827 112.665 14.402 113.053 14.1116C113.44 13.8266 113.91 13.6772 114.391 13.6867C114.526 13.6871 114.662 13.6949 114.796 13.71C114.925 13.723 115.052 13.7447 115.178 13.7749V15.9911C115.018 15.9478 114.855 15.9166 114.691 15.8976C114.502 15.8713 114.312 15.8575 114.121 15.8562C113.778 15.8502 113.44 15.9322 113.138 16.0942C112.855 16.2477 112.62 16.4759 112.457 16.7539C112.287 17.0495 112.2 17.3861 112.207 17.7271V22.8269L109.707 22.8237Z" fill="white"/>
<path d="M123.965 16.3842L121.676 16.5245C121.637 16.3294 121.551 16.147 121.424 15.9932C121.287 15.8286 121.113 15.698 120.916 15.6118C120.681 15.5114 120.427 15.4625 120.171 15.4684C119.828 15.457 119.489 15.5412 119.191 15.7117C118.925 15.8739 118.792 16.0899 118.792 16.3598C118.791 16.4642 118.814 16.5674 118.859 16.6618C118.904 16.7562 118.969 16.8392 119.05 16.9048C119.223 17.0536 119.518 17.1729 119.936 17.2629L121.569 17.5911C122.445 17.7711 123.099 18.0604 123.53 18.4592C123.961 18.8579 124.176 19.3817 124.176 20.0305C124.185 20.5928 124.002 21.1413 123.656 21.5849C123.282 22.0505 122.793 22.4093 122.236 22.625C121.573 22.8857 120.866 23.0128 120.154 22.999C118.961 22.999 118.011 22.7511 117.305 22.2553C116.965 22.0237 116.678 21.7221 116.463 21.3706C116.249 21.0192 116.113 20.626 116.063 20.2175L118.523 20.089C118.552 20.2567 118.615 20.4167 118.707 20.5594C118.8 20.7021 118.921 20.8243 119.063 20.9187C119.393 21.1203 119.775 21.2194 120.161 21.2035C120.599 21.2035 120.953 21.1181 121.224 20.9474C121.495 20.7767 121.631 20.5571 121.633 20.2887C121.632 20.1792 121.606 20.0713 121.556 19.9739C121.505 19.8765 121.433 19.7921 121.344 19.7277C121.157 19.5811 120.867 19.4695 120.476 19.3909L118.914 19.0807C118.034 18.9043 117.379 18.5991 116.951 18.1649C116.523 17.7307 116.308 17.1775 116.307 16.5053C116.294 15.9683 116.461 15.4422 116.781 15.0105C117.126 14.57 117.588 14.2347 118.113 14.0426C118.76 13.8031 119.445 13.6878 120.134 13.7026C121.274 13.7026 122.171 13.9431 122.825 14.424C123.142 14.6527 123.407 14.9454 123.603 15.2831C123.8 15.6208 123.923 15.9959 123.965 16.3842Z" fill="white"/>
<path d="M129.859 22.999C128.932 22.999 128.135 22.8102 127.467 22.4327C126.806 22.0616 126.269 21.5025 125.926 20.8263C125.565 20.1322 125.385 19.3102 125.386 18.3604C125.386 17.4339 125.566 16.6194 125.926 15.9167C126.267 15.2372 126.796 14.6694 127.449 14.2806C128.105 13.8896 128.875 13.6941 129.759 13.6941C130.328 13.6901 130.894 13.7879 131.428 13.9831C131.934 14.166 132.394 14.456 132.778 14.833C133.179 15.2373 133.487 15.7248 133.68 16.261C133.905 16.9059 134.013 17.586 133.999 18.269V18.9553H126.385V17.4105H131.641C131.647 17.0768 131.566 16.7472 131.406 16.4543C131.254 16.1811 131.029 15.955 130.757 15.8009C130.465 15.6384 130.134 15.5563 129.8 15.5629C129.446 15.556 129.098 15.6464 128.793 15.8243C128.507 15.9927 128.271 16.2335 128.109 16.5223C127.943 16.8188 127.856 17.1528 127.857 17.4923V18.9649C127.846 19.3641 127.932 19.7601 128.106 20.1198C128.262 20.4341 128.509 20.695 128.814 20.8698C129.146 21.0532 129.521 21.1445 129.9 21.1344C130.159 21.1371 130.416 21.0977 130.662 21.0175C130.884 20.9449 131.086 20.8245 131.256 20.6648C131.423 20.5041 131.551 20.3075 131.631 20.09L133.944 20.243C133.835 20.7812 133.587 21.2814 133.224 21.6943C132.841 22.1191 132.363 22.4469 131.828 22.6505C131.2 22.8914 130.532 23.0097 129.859 22.999Z" fill="white"/>
<path d="M88.4423 11.9453V10.8361C88.4416 10.7876 88.4284 10.74 88.404 10.698C88.3796 10.6531 88.3426 10.6162 88.2977 10.5918L87.3256 10.0372C87.2837 10.0127 87.2359 9.99985 87.1873 10C87.1384 9.99997 87.0904 10.0128 87.048 10.0372L86.077 10.5918C86.0324 10.6167 85.9956 10.6535 85.9706 10.698C85.9461 10.7399 85.9332 10.7876 85.9334 10.8361V11.9453C85.9332 11.9939 85.9461 12.0416 85.9706 12.0834C85.9956 12.128 86.0324 12.1648 86.077 12.1897L87.048 12.7443C87.0904 12.7687 87.1384 12.7815 87.1873 12.7815C87.2359 12.7816 87.2837 12.7688 87.3256 12.7443L88.2977 12.1897C88.3426 12.1652 88.3796 12.1284 88.404 12.0834C88.4284 12.0414 88.4416 11.9939 88.4423 11.9453Z" fill="white"/>
<path d="M30 23.1009V9.89906C29.9996 9.32023 29.8454 8.75169 29.5528 8.2506C29.2602 7.74951 28.8395 7.33352 28.3331 7.04445L16.6669 0.441935C16.1602 0.152413 15.5854 0 15.0004 0C14.4154 0 13.8406 0.152413 13.3339 0.441935L1.66693 7.04366C1.16077 7.33304 0.740322 7.7491 0.447753 8.25012C0.155184 8.75114 0.000773161 9.31952 0 9.89827V23.1001C0.000353295 23.6793 0.154566 24.2482 0.447156 24.7496C0.739746 25.2511 1.16042 25.6676 1.66693 25.9571L13.3339 32.5581C13.8406 32.8476 14.4154 33 15.0004 33C15.5854 33 16.1602 32.8476 16.6669 32.5581L28.3331 25.9571C28.8396 25.668 29.2604 25.2519 29.553 24.7506C29.8456 24.2494 29.9998 23.6807 30 23.1017V23.1009Z" fill="#3390EC"/>
<path d="M15.0004 27C14.7135 27.0005 14.4321 26.9237 14.1868 26.7782C13.9415 26.6326 13.7418 26.4237 13.6096 26.1745L6.17819 12.2477C6.05329 12.0135 5.9922 11.7517 6.0008 11.4876C6.0094 11.2236 6.08741 10.9661 6.2273 10.7402C6.36718 10.5142 6.56422 10.3274 6.79938 10.1977C7.03453 10.0681 7.29987 9.99997 7.56975 10H22.431C22.7009 10.0001 22.9661 10.0683 23.2011 10.198C23.4362 10.3277 23.6331 10.5146 23.7729 10.7405C23.9127 10.9664 23.9906 11.2238 23.9992 11.4878C24.0078 11.7519 23.9467 12.0136 23.8218 12.2477L16.3904 26.1745C16.2582 26.4236 16.0587 26.6324 15.8135 26.778C15.5684 26.9235 15.2871 27.0003 15.0004 27ZM8.09347 11.8502L15.0004 24.7919L21.9073 11.8502H8.09347Z" fill="white"/>
<path d="M16.0304 10.9274H13.9712V25.4525H16.0304V10.9274Z" fill="white"/>
</svg>
